# xmcd
#
# Track frame offsets:
#	150
#	19019
#	33901
#	51816
#	69062
#	82259
#	99060
#	116820
#	138832
#	154800
#	173970
#	193205
#	217734
#	232300
#	253272
#	271138
#	289055
#	311530
#	338232
#
# Disc length: 4765 seconds
#
# Revision: 0
# Processed by: cddbd v1.5.2PL0 Copyright (c) Steve Scherf et al.
# Submitted via: audiograbber 1.83.01
#
DISCID=0e129b13
DTITLE=Various Artist - Latest and Greatest R&B Summer [CD 1 of 3)
DYEAR=2015
DGENRE=R&B
TTITLE0=Will.I.Am feat Cody Wise - It's My Birthday
TTITLE1=Jennifer Lopez - I'm Into You
TTITLE2=Snoop Dogg - Sensual Seduction
TTITLE3=Ne-Yo - Miss Independent
TTITLE4=Lloyd feat Lil Wayne - You
TTITLE5=Ariana Grande feat Mac Miller - The Way
TTITLE6=Nicole Scherzinger - Right There
TTITLE7=Tamia feat Fabolous - Into You
TTITLE8=Ashanti - Rock Wit U (Awww Baby)
TTITLE9=Nelly Furtado - Maneater
TTITLE10=Jhené Aiko feat Childish Gambino - Bed Peace
TTITLE11=Young Jeezy feat Ne-Yo - Leave You Alone
TTITLE12=Christina Milian - Dip It Low
TTITLE13=Day26 - Got Me Going
TTITLE14=LeToya - Torn
TTITLE15=Bobby Valentino - Tell Me
TTITLE16=Frank Ocean - Novocaine
TTITLE17=Nas feat Amy Winehouse - Cherry Wine
TTITLE18=Mary J Blige - Just Fine
EXTD=
EXTT0=
EXTT1=
EXTT2=
EXTT3=
EXTT4=
EXTT5=
EXTT6=
EXTT7=
EXTT8=
EXTT9=
EXTT10=
EXTT11=
EXTT12=
EXTT13=
EXTT14=
EXTT15=
EXTT16=
EXTT17=
EXTT18=
PLAYORDER=
